<svg xmlns="http://www.w3.org/2000/svg" width="36" height="36" viewBox="0 0 36 36">
  <g id="Group_51" data-name="Group 51" transform="translate(-172 -2731)">
    <circle id="Ellipse_8" data-name="Ellipse 8" cx="18" cy="18" r="18" transform="translate(172 2731)" fill="#fff" opacity="0.2"/>
    <path id="Path_79" data-name="Path 79" d="M196.17,229.64a3.173,3.173,0,0,1,1.341,1.142,1.035,1.035,0,0,1-.072,1.314c-.059.069-.125.132-.19.2q-3.574,3.575-7.15,7.149a2.1,2.1,0,0,1-.2.153c.081.085.131.142.184.2l7.177,7.177a1.114,1.114,0,0,1,0,1.765c-.092.092-.187.18-.275.276a1.912,1.912,0,0,1-.825.588h-.429a1.957,1.957,0,0,1-.8-.556q-4.274-4.281-8.555-8.554a1.115,1.115,0,0,1-.342-1.2,1.188,1.188,0,0,1,.284-.455q4.415-4.429,8.845-8.843a2.825,2.825,0,0,1,.57-.348Z" transform="translate(-2.984 2509.357)" fill="#fff" fill-rule="evenodd" opacity="0.4"/>
  </g>
</svg>
