<svg xmlns="http://www.w3.org/2000/svg" width="394.965" height="393.971" viewBox="0 0 394.965 393.971">
  <g id="Group_32" data-name="Group 32" transform="translate(-46.963 -32.513)">
    <path id="Path_2" data-name="Path 2" d="M107.041,292.69,52.19,338.631H441.1L379.956,292.69Z" transform="translate(0.831 41.379)" fill="#fff"/>
    <path id="Path_3" data-name="Path 3" d="M379.8,312.575a11.679,11.679,0,0,1-11.5,11.848H107.474a11.683,11.683,0,0,1-11.509-11.848V120.54a11.681,11.681,0,0,1,11.509-11.845H368.3a11.677,11.677,0,0,1,11.5,11.845Z" transform="translate(7.793 12.116)" fill="#fff"/>
    <path id="Path_4" data-name="Path 4" d="M374.693,306.179a11.312,11.312,0,0,1-11.145,11.471H110.99a11.314,11.314,0,0,1-11.144-11.471V125.3a11.31,11.31,0,0,1,11.144-11.468H363.547A11.309,11.309,0,0,1,374.693,125.3Z" transform="translate(8.41 12.933)" fill="#222b34"/>
    <path id="Path_5" data-name="Path 5" d="M354.412,289.649a8.925,8.925,0,0,1-8.793,9.051h-221.6a8.926,8.926,0,0,1-8.792-9.051V137.262a8.925,8.925,0,0,1,8.792-9.053h221.6a8.925,8.925,0,0,1,8.793,9.053Z" transform="translate(10.857 15.219)" fill="#00adb9"/>
    <rect id="Rectangle_1" data-name="Rectangle 1" width="388.907" height="14.787" transform="translate(53.021 380.01)" fill="#65676a"/>
    <path id="Path_6" data-name="Path 6" d="M125.773,299.339l-23.391,20.5H371.353l-26.078-20.5Z" transform="translate(8.814 42.436)" fill="#c7c9cb"/>
    <path id="Path_7" data-name="Path 7" d="M260.719,329H188.665l10.786-9.453H248.69Z" transform="translate(22.536 45.649)" fill="#c7c9cb"/>
    <path id="Path_8" data-name="Path 8" d="M295.969,74.71a5.918,5.918,0,0,1,2.771,7.9L240.571,203.6a5.923,5.923,0,0,1-7.907,2.771l-86.54-41.611a5.919,5.919,0,0,1-2.771-7.9L201.522,35.873a5.925,5.925,0,0,1,7.907-2.774Z" transform="translate(15.236 0)" fill="#aeb0b3"/>
    <path id="Path_9" data-name="Path 9" d="M291.957,75.135a5.729,5.729,0,0,1,2.683,7.65L238.31,199.941a5.733,5.733,0,0,1-7.65,2.686l-81.519-39.2a5.736,5.736,0,0,1-2.683-7.654L202.786,38.622a5.737,5.737,0,0,1,7.655-2.682Z" transform="translate(15.734 0.455)" fill="#222b34"/>
    <path id="Path_10" data-name="Path 10" d="M278,77.762A4.529,4.529,0,0,1,280.12,83.8L230.7,186.593a4.525,4.525,0,0,1-6.042,2.118l-68.675-33.02a4.527,4.527,0,0,1-2.116-6.041L203.284,46.862a4.529,4.529,0,0,1,6.042-2.119Z" transform="translate(16.93 1.874)" fill="#fff"/>
    <path id="Path_11" data-name="Path 11" d="M250.326,115.715a1.851,1.851,0,0,1,.865,2.466l-8.011,16.658a1.849,1.849,0,0,1-2.465.865h0a1.847,1.847,0,0,1-.862-2.468l8-16.657a1.853,1.853,0,0,1,2.47-.865Z" transform="translate(30.648 13.203)" fill="#fff"/>
    <path id="Path_12" data-name="Path 12" d="M172.438,87.6,143.353,148.1a5.919,5.919,0,0,0,2.771,7.9l86.54,41.611a5.923,5.923,0,0,0,7.907-2.771l29.085-60.491Z" transform="translate(15.236 8.761)" fill="#aeb0b3"/>
    <g id="Group_2" data-name="Group 2" transform="translate(166.471 100.671)">
      <path id="Path_13" data-name="Path 13" d="M209.289,165.728H162.156l-7.566-41.313h61.1Z" transform="translate(-149.354 -86.054)" fill="#cc1e25"/>
      <path id="Path_14" data-name="Path 14" d="M207.246,160.289c-12.019,2.163-25.455-1.736-31.452-13.138-3.314-6.3-5.15-15.165-3.5-22.736h-17.7l7.566,41.313h47.132l.952-6.128C209.25,159.876,208.255,160.1,207.246,160.289Z" transform="translate(-149.354 -86.054)" fill="#c7c9cb"/>
      <rect id="Rectangle_2" data-name="Rectangle 2" width="69.825" height="11.64" transform="translate(0 26.721)" fill="#9b171b"/>
      <path id="Path_15" data-name="Path 15" d="M213.584,117.607c-11.42,3.652-23.941,4.314-35.8,2.843a62.519,62.519,0,0,1-13.985-3.061,18.874,18.874,0,0,1-5.585-3.016h-8.142v11.64H219.9v-10.9A50.262,50.262,0,0,1,213.584,117.607Z" transform="translate(-150.073 -87.652)" fill="#b0b3b5"/>
      <rect id="Rectangle_3" data-name="Rectangle 3" width="11.885" height="11.64" transform="translate(30.959 26.721)" fill="#aeb0b3"/>
      <rect id="Rectangle_4" data-name="Rectangle 4" width="10.474" height="11.64" transform="translate(29.75 26.721)" fill="#e67328"/>
      <g id="Group_1" data-name="Group 1" transform="translate(11.138)">
        <path id="Path_16" data-name="Path 16" d="M182.4,115.645S205.3,103.61,194.536,93.2c0,0-12.634-10.895-14.358,19.759C180.178,112.958,179.157,117.032,182.4,115.645Zm1.134-6.615c1.023-18.141,8.5-11.692,8.5-11.692,6.37,6.159-7.178,13.284-7.178,13.284C182.933,111.441,183.537,109.03,183.537,109.03Z" transform="translate(-156.447 -91.318)" fill="#ffca28"/>
        <path id="Path_17" data-name="Path 17" d="M182.644,115.4s6.1-25.144-8.833-23.942c0,0-16.528,2.286,5.34,23.836C179.15,115.294,181.537,118.752,182.644,115.4Zm-4.22-5.223c-12.94-12.754-3.16-14.1-3.16-14.1,8.835-.713,5.221,14.166,5.221,14.166C179.836,112.225,178.424,110.178,178.424,110.178Z" transform="translate(-158.388 -91.303)" fill="#be5e21"/>
        <path id="Path_18" data-name="Path 18" d="M182.976,112.85c-18.894-24.2-23.064-8.047-23.064-8.047-2.91,14.69,22.767,11.527,22.767,11.527C186.136,115.614,182.976,112.85,182.976,112.85Zm-5.175.746s-15.2,1.872-13.474-6.822c0,0,2.472-9.561,13.648,4.764C177.975,111.538,179.848,113.174,177.8,113.6Z" transform="translate(-159.683 -90.014)" fill="#fe9d2b"/>
        <path id="Path_19" data-name="Path 19" d="M180.908,116.156s25.6,3.744,23.02-11.007c0,0-3.8-16.244-23.235,7.526C180.692,112.674,177.467,115.364,180.908,116.156Zm4.81-4.679c11.5-14.067,13.752-4.455,13.752-4.455,1.524,8.731-13.625,6.515-13.625,6.515C183.808,113.068,185.718,111.477,185.718,111.477Z" transform="translate(-156.559 -89.98)" fill="#fe9d2b"/>
      </g>
      <path id="Path_20" data-name="Path 20" d="M154.59,124.415l.808,4.4h59.609l.686-4.4Z" transform="translate(-149.354 -86.054)" fill="#96999c"/>
      <rect id="Rectangle_5" data-name="Rectangle 5" width="8.584" height="41.313" transform="translate(32.005 38.361)" fill="#aeb0b3"/>
      <rect id="Rectangle_6" data-name="Rectangle 6" width="7.563" height="41.313" transform="translate(31.133 38.361)" fill="#fe9d2b"/>
      <path id="Path_21" data-name="Path 21" d="M187.741,128.933h20.222l-4.51,28.368S186.141,160.936,187.741,128.933Z" transform="translate(-144.098 -85.336)" fill="#fff"/>
    </g>
    <g id="Group_9" data-name="Group 9" transform="translate(253.215 74.439)">
      <g id="Group_7" data-name="Group 7" transform="translate(0.563)">
        <g id="Group_3" data-name="Group 3" transform="translate(0 11.945)">
          <path id="Path_22" data-name="Path 22" d="M251.958,94.754c4.146-.16,8.288-.239,12.431-.352s8.287-.144,12.431-.22l-.363.127.65-.591a8.46,8.46,0,0,0,.587-.625,6.946,6.946,0,0,0,.487-.661c.065-.114.108-.228.165-.342a.965.965,0,0,0,.118-.334.825.825,0,0,0,.047-.318.688.688,0,0,0-.03-.29,1.142,1.142,0,0,0-.278-.523,2.277,2.277,0,0,0-.553-.442,3.184,3.184,0,0,0-.675-.307l.05.013-3.194-.792c-1.067-.255-2.127-.538-3.167-.887l-3.14-.985L264.439,86.1c-1.036-.36-2.042-.8-3.056-1.212s-2.026-.836-3.017-1.3c-1-.449-2-.905-2.98-1.4-.991-.478-1.955-.981-2.94-1.518l.772.031c-1.937.95-3.95,1.995-5.976,2.923-1.026.445-2.035.932-3.076,1.341l-1.56.62c-.523.2-1.034.431-1.566.6l-3.17,1.1c-1.062.343-2.138.641-3.209.964s-2.147.613-3.235.866l-3.256.782.052-.014a3.155,3.155,0,0,0-.675.307,2.239,2.239,0,0,0-.551.44,1.1,1.1,0,0,0-.278.522.681.681,0,0,0-.029.289.832.832,0,0,0,.05.318.917.917,0,0,0,.115.334c.057.112.1.228.166.341a6.573,6.573,0,0,0,.487.661c.2.205.364.432.587.624l.649.591-.362-.129c4.142.078,8.285.105,12.427.221s8.286.195,12.428.355c-4.142.16-8.285.24-12.428.354s-8.285.145-12.427.221l-.209,0-.154-.132-.731-.625a9.779,9.779,0,0,1-.692-.694,7.349,7.349,0,0,1-.627-.8c-.093-.148-.17-.318-.254-.476a1.87,1.87,0,0,1-.2-.524,2.361,2.361,0,0,1-.064-1.2,2.412,2.412,0,0,1,.534-1.1,3.513,3.513,0,0,1,.85-.736,4.368,4.368,0,0,1,.982-.48h0l.048-.013,3.2-.826c1.071-.26,2.133-.545,3.178-.886s2.108-.633,3.151-.982l3.1-1.116c.523-.174,1.021-.407,1.532-.607l1.524-.626c1.018-.41,2-.9,3.005-1.346,2-.939,3.9-1.969,5.947-2.976l.38-.188.392.219c.919.513,1.879,1.027,2.841,1.5.957.495,1.933.955,2.914,1.406.974.469,1.962.9,2.959,1.313s1.983.861,3,1.225l3.029,1.147,3.078,1c1.021.355,2.061.643,3.106.9l3.124.837.052.013a4.5,4.5,0,0,1,.983.48,3.6,3.6,0,0,1,.848.735,2.429,2.429,0,0,1,.532,1.1,2.332,2.332,0,0,1-.061,1.2,1.848,1.848,0,0,1-.2.524c-.083.159-.16.328-.253.475a7.681,7.681,0,0,1-.625.8,9.555,9.555,0,0,1-.693.694l-.729.625-.156.131-.205,0c-4.144-.077-8.288-.1-12.431-.221S256.1,94.914,251.958,94.754Z" transform="translate(-225.4 -78.992)" fill="#212a33"/>
        </g>
        <g id="Group_4" data-name="Group 4" transform="translate(24.095 12.89)">
          <path id="Path_23" data-name="Path 23" d="M249.556,79.807a2.823,2.823,0,0,0-.29.559l-.247.574c-.166.378-.311.764-.458,1.14a13.874,13.874,0,0,0-.675,2.239,3.034,3.034,0,0,0-.065.529,2.143,2.143,0,0,0,0,.487,1.06,1.06,0,0,0,.074.41.641.641,0,0,0,.15.309c.028.111.159.155.235.238.061.1.233.122.356.188l.2.1.252.044.509.112h-.1a2.414,2.414,0,0,0,.487-.063,3.789,3.789,0,0,0,.482-.143,1.694,1.694,0,0,0,.389-.221,1.626,1.626,0,0,0,.271-.325,1.389,1.389,0,0,0,.129-.475,2.65,2.65,0,0,0,.014-.58c-.043-.2-.059-.414-.107-.625-.063-.206-.1-.429-.16-.65a4.65,4.65,0,0,1,.846,1.094,3.22,3.22,0,0,1,.252.706,2.381,2.381,0,0,1,.018.824l-.13.428a4.016,4.016,0,0,1-.228.389,2.812,2.812,0,0,1-.629.592,2.973,2.973,0,0,1-.724.37,3.8,3.8,0,0,1-.792.2l-.042.006-.057,0-.726-.063-.365-.048-.38-.132a2.167,2.167,0,0,1-.743-.373,2.113,2.113,0,0,1-.633-.633,2.184,2.184,0,0,1-.372-.808,2.352,2.352,0,0,1-.1-.816,2.608,2.608,0,0,1,.071-.753,4.441,4.441,0,0,1,.178-.692,6.6,6.6,0,0,1,.537-1.244,8.727,8.727,0,0,1,.715-1.1,8.339,8.339,0,0,1,.843-.985A4.074,4.074,0,0,1,249.556,79.807Z" transform="translate(-246.189 -79.807)" fill="#212a33"/>
        </g>
        <g id="Group_6" data-name="Group 6" transform="translate(23.018)">
          <g id="Group_5" data-name="Group 5">
            <path id="Path_24" data-name="Path 24" d="M249.16,81.576a4.45,4.45,0,0,0,.473-.841l.41-.87c.267-.58.509-1.167.749-1.746a21.362,21.362,0,0,0,1.1-3.472,3.828,3.828,0,0,0-.238-2.83,1.585,1.585,0,0,0-.4-.407,2.779,2.779,0,0,0-.584-.318,4.015,4.015,0,0,0-.738-.216c-.254-.075-.548-.093-.822-.146l.131,0a3.554,3.554,0,0,0-.378.034c-.136.024-.276.043-.407.079a5.4,5.4,0,0,0-.767.242,2.721,2.721,0,0,0-.627.382,3.212,3.212,0,0,1-.239.253,3.162,3.162,0,0,1-.192.3l-.124.36a2.656,2.656,0,0,0-.057.409,4.5,4.5,0,0,0,.007.909c.076.307.111.637.195.961.107.315.183.651.281.986-.221-.257-.466-.515-.682-.794a9.434,9.434,0,0,1-.566-.912,5.191,5.191,0,0,1-.36-1.076,4.09,4.09,0,0,1-.063-.6c.012-.209.024-.421.05-.635.059-.209.124-.422.2-.634a6.491,6.491,0,0,1,.344-.575,4.3,4.3,0,0,1,.946-.877,4.686,4.686,0,0,1,1.091-.546c.188-.072.38-.123.571-.177a5.686,5.686,0,0,1,.622-.123l.054-.007.077,0a10.306,10.306,0,0,1,1.088.075,6.009,6.009,0,0,1,1.125.265,4.317,4.317,0,0,1,1.116.567,3.5,3.5,0,0,1,.948.945,4.209,4.209,0,0,1,.709,2.426,7.155,7.155,0,0,1-.377,2.181,12.609,12.609,0,0,1-1.876,3.609,14.127,14.127,0,0,1-1.263,1.538c-.221.245-.466.471-.71.7A3.6,3.6,0,0,1,249.16,81.576Z" transform="translate(-245.259 -68.686)" fill="#212a33"/>
          </g>
        </g>
      </g>
      <g id="Group_8" data-name="Group 8" transform="translate(0 16.793)">
        <path id="Path_25" data-name="Path 25" d="M268.554,84.525l-3.663-1.35c-2.85,9.094-9.329,11.4-12.917,11.972-3.584-.57-10.064-2.878-12.914-11.972l-3.661,1.35s4.241,10.215-3.665,17.35c0,0,5.4,11.565,6.17,22.359h28.143c.774-10.794,6.168-22.359,6.168-22.359C264.312,94.74,268.554,84.525,268.554,84.525Z" transform="translate(-223.829 -83.175)" fill="#fe9d2b"/>
        <path id="Path_26" data-name="Path 26" d="M266.533,115.473a22.713,22.713,0,0,1-17.526-4.218c-5.237-4.075-8.053-10.258-9.651-16.56a38.083,38.083,0,0,1-1.2-10.388c.007-.27.012-.555.014-.848L235.4,84.48s4.241,10.215-3.665,17.35c0,0,5.4,11.565,6.17,22.359h28.143a52.884,52.884,0,0,1,1.515-8.962A10.468,10.468,0,0,1,266.533,115.473Z" transform="translate(-223.829 -83.13)" fill="#c7c9cb"/>
        <path id="Path_27" data-name="Path 27" d="M280.434,165.184s-12.339-33.711-13.3-46.584H238.988s.387,10.421-14.074,46.584C224.914,165.184,252.61,181.179,280.434,165.184Z" transform="translate(-224.914 -77.541)" fill="#00adb9"/>
        <path id="Path_28" data-name="Path 28" d="M277.049,155.522a13.246,13.246,0,0,1-.814,1.5,18.765,18.765,0,0,1-9.132,7.1c-7.741,3.126-17.89,3.466-24.387-2.578a20.413,20.413,0,0,1-6.451-11.626c-.781-4.95.285-9.62,1.6-14.384a75.369,75.369,0,0,1,5.587-14.242c.423-.829.892-1.763,1.422-2.694h-5.888s.387,10.421-14.074,46.584c0,0,27.7,15.995,55.52,0C280.434,165.184,278.988,161.234,277.049,155.522Z" transform="translate(-224.914 -77.541)" fill="#c7c9cb"/>
        <rect id="Rectangle_7" data-name="Rectangle 7" width="30.844" height="4.819" transform="translate(12.725 38.555)" fill="#1c232c"/>
        <path id="Path_29" data-name="Path 29" d="M243.835,122.259,238.078,155.1s1.8,3.789,5.275,4.368Z" transform="translate(-222.82 -76.959)" fill="#fff" opacity="0.2"/>
        <path id="Path_30" data-name="Path 30" d="M258.875,122.259l8.835,35.086a8.69,8.69,0,0,1-5.161,3.985Z" transform="translate(-219.513 -76.959)" fill="#fff" opacity="0.2"/>
        <path id="Path_31" data-name="Path 31" d="M250.986,122.259l-2.121,39.071s3.085,1.1,4.24,0Z" transform="translate(-221.105 -76.959)" fill="#fff" opacity="0.2"/>
      </g>
    </g>
    <g id="Group_24" data-name="Group 24" transform="translate(164.812 99.232)">
      <g id="Group_10" data-name="Group 10" transform="translate(0 30.655)">
        <path id="Path_32" data-name="Path 32" d="M296.314,229.155,167.777,215.912c-20.2-4.613-19.292-20.559-19.057-22.812V154.533l154.7-38.008ZM168.777,210.838,291.5,223.465l6.327-100.243L153.883,158.584v34.86l-.031.2C153.778,194.175,152.1,206.951,168.777,210.838Z" transform="translate(-148.641 -116.525)" fill="#fff"/>
      </g>
      <g id="Group_11" data-name="Group 11" transform="translate(2.185 57.604)">
        <rect id="Rectangle_8" data-name="Rectangle 8" width="150.199" height="5.168" transform="matrix(0.983, -0.182, 0.182, 0.983, 0, 27.366)" fill="#fff"/>
      </g>
      <g id="Group_12" data-name="Group 12" transform="translate(2.47 84.613)">
        <rect id="Rectangle_9" data-name="Rectangle 9" width="148.661" height="5.168" transform="matrix(0.997, -0.075, 0.075, 0.997, 0, 11.201)" fill="#fff"/>
      </g>
      <g id="Group_13" data-name="Group 13" transform="translate(2.621 108.795)">
        <rect id="Rectangle_10" data-name="Rectangle 10" width="5.167" height="144.16" transform="translate(0 5.164) rotate(-88.014)" fill="#fff"/>
      </g>
      <g id="Group_14" data-name="Group 14" transform="translate(17.623 66.379)">
        <rect id="Rectangle_11" data-name="Rectangle 11" width="5.164" height="61.141" fill="#fff"/>
      </g>
      <g id="Group_15" data-name="Group 15" transform="translate(42.851 60.112)">
        <rect id="Rectangle_12" data-name="Rectangle 12" width="5.573" height="71.107" fill="#fff"/>
      </g>
      <g id="Group_16" data-name="Group 16" transform="translate(68.51 52.731)">
        <rect id="Rectangle_13" data-name="Rectangle 13" width="5.92" height="80.117" fill="#fff"/>
      </g>
      <g id="Group_17" data-name="Group 17" transform="translate(94.199 47.161)">
        <rect id="Rectangle_14" data-name="Rectangle 14" width="6.212" height="88.344" fill="#fff"/>
      </g>
      <g id="Group_18" data-name="Group 18" transform="translate(122.432 39.18)">
        <rect id="Rectangle_15" data-name="Rectangle 15" width="6.581" height="99.248" fill="#fff"/>
      </g>
      <g id="Group_19" data-name="Group 19" transform="translate(140.624 3.7)">
        <path id="Path_33" data-name="Path 33" d="M276.538,229.722l-6.569-.423,8.059-124.167a12.163,12.163,0,0,1,2.447-8.331,10.157,10.157,0,0,1,7.439-3.525l.223-.007h24.8v6.582H288.255a3.519,3.519,0,0,0-2.7,1.14,5.686,5.686,0,0,0-.953,3.748l.036.3-.022.27Z" transform="translate(-269.969 -93.269)" fill="#fff"/>
      </g>
      <g id="Group_20" data-name="Group 20" transform="translate(6.37 131.887)">
        <path id="Path_34" data-name="Path 34" d="M275.374,256.408q-2.22,0-4.638-.217l-109.323.217a3.617,3.617,0,1,1,.03-7.235l109.477-.216c.105,0,.212.007.319.014,7.848.724,13.666-.544,16.83-3.656a10.049,10.049,0,0,0,2.878-7.407c-.012-.153-.014-.269-.012-.421.3-10.533-10.653-11.987-11.12-12.044L157.334,211.077a3.618,3.618,0,0,1,.84-7.186l122.5,14.37c6.2.758,17.779,5.75,17.5,19.26a17.514,17.514,0,0,1-4.907,12.832C289.256,254.377,283.252,256.408,275.374,256.408Z" transform="translate(-154.137 -203.867)" fill="#fff"/>
      </g>
      <g id="Group_21" data-name="Group 21" transform="translate(13.676 185.137)">
        <path id="Path_35" data-name="Path 35" d="M170,268.93a9.56,9.56,0,1,1,9.557-9.557A9.57,9.57,0,0,1,170,268.93Zm0-14.468a4.909,4.909,0,1,0,4.905,4.911A4.916,4.916,0,0,0,170,254.461Z" transform="translate(-160.44 -249.81)" fill="#fff"/>
      </g>
      <g id="Group_22" data-name="Group 22" transform="translate(116.164 185.137)">
        <path id="Path_36" data-name="Path 36" d="M258.422,268.93a9.56,9.56,0,1,1,9.56-9.557A9.57,9.57,0,0,1,258.422,268.93Zm0-14.468a4.909,4.909,0,1,0,4.911,4.911A4.917,4.917,0,0,0,258.422,254.461Z" transform="translate(-248.865 -249.81)" fill="#fff"/>
      </g>
      <g id="Group_23" data-name="Group 23" transform="translate(159.064)">
        <path id="Rectangle_16" data-name="Rectangle 16" d="M3.312,0H33.788A3.313,3.313,0,0,1,37.1,3.313V10.67a3.312,3.312,0,0,1-3.312,3.312H3.313A3.313,3.313,0,0,1,0,10.669V3.312A3.312,3.312,0,0,1,3.312,0Z" fill="#e4393d"/>
      </g>
    </g>
    <g id="Group_26" data-name="Group 26" transform="translate(81.361 258.142)">
      <rect id="Rectangle_17" data-name="Rectangle 17" width="68.974" height="136.258" transform="translate(0 11.423) rotate(-9.533)" fill="#45562c"/>
      <path id="Path_37" data-name="Path 37" d="M126.688,237.425,94.678,242.8A10.825,10.825,0,0,1,85.8,255.265l15.758,93.849a10.82,10.82,0,0,1,12.464,8.881,10.51,10.51,0,0,1,.133,1.5l32.243-5.413a11.478,11.478,0,0,1-.367-1.468,10.826,10.826,0,0,1,8.881-12.462L139.15,246.306A10.819,10.819,0,0,1,126.688,237.425Z" transform="translate(-75.185 -225.553)" fill="#62783f"/>
      <path id="Path_38" data-name="Path 38" d="M114.871,264.673a29.924,29.924,0,1,1-24.555,34.469A29.927,29.927,0,0,1,114.871,264.673Z" transform="translate(-74.533 -221.285)" fill="#45562c"/>
      <g id="Group_25" data-name="Group 25" transform="translate(18.476 54.2)">
        <path id="Path_39" data-name="Path 39" d="M96.173,295.687l-.159-.943q-1.073-6.374.636-10.611a7.648,7.648,0,0,1,6.178-4.984,5.54,5.54,0,0,1,4.313,1.01,5.682,5.682,0,0,1,2.368,3.827,6.544,6.544,0,0,1-.738,4.437,4.969,4.969,0,0,1-3.73,2.453,5.6,5.6,0,0,1-4.016-.688,4.379,4.379,0,0,1-2.083-2.311c-.238-.826-.555-1.2-.945-1.139q-.709.12-1.043,2.443a14.588,14.588,0,0,0,.041,4.56l.356,1.754,13.764-2.313q.923-4.221,1.8-8.434a17.692,17.692,0,0,1,3.682-7.111,10.505,10.505,0,0,1,6.3-3.427q7.257-1.215,11.418,3.212a26.155,26.155,0,0,1,6.034,11.215l5.647-.948.209,1.238-5.527.928.461,2.4a22.3,22.3,0,0,1-.765,10.441q-1.636,5.266-6.241,6.037a6.112,6.112,0,0,1-4.643-1.081,5.964,5.964,0,0,1-2.594-4.053,6.531,6.531,0,0,1,.84-4.736,5.564,5.564,0,0,1,4-2.487,4.689,4.689,0,0,1,3.824.81,5.786,5.786,0,0,1,2.05,2.862c.107.625.394.9.865.822q.781-.132,1.347-3.2a15.745,15.745,0,0,0,.17-5.415l-.435-2.211-14.234,2.389q-.513,2.33-1.094,4.844t-1.409,5.106a12.758,12.758,0,0,1-3.6,5.2,12.237,12.237,0,0,1-6.531,3.244,11.508,11.508,0,0,1-10.933-3.7,19.694,19.694,0,0,1-5.372-10.193l-3.588.6-.209-1.238Zm1.56,1.012a7.314,7.314,0,0,0,2.708,3.52,5.622,5.622,0,0,0,4.181.765,6.251,6.251,0,0,0,3.94-2.126,12.759,12.759,0,0,0,2.23-4.352Zm41.438-7.866a10.812,10.812,0,0,0-2.757-4.5,5.033,5.033,0,0,0-4.523-1.238,6.367,6.367,0,0,0-3.912,2.017q-1.373,1.592-2.393,6Z" transform="translate(-92.582 -273.945)" fill="#62783f"/>
      </g>
      <path id="Path_40" data-name="Path 40" d="M109.121,245.775a7.36,7.36,0,1,1-6.04,8.48A7.362,7.362,0,0,1,109.121,245.775Z" transform="translate(-72.452 -224.241)" fill="#45562c"/>
      <path id="Path_41" data-name="Path 41" d="M121.976,322.327a7.362,7.362,0,1,1-6.04,8.481A7.359,7.359,0,0,1,121.976,322.327Z" transform="translate(-70.408 -212.066)" fill="#45562c"/>
    </g>
    <g id="Group_28" data-name="Group 28" transform="translate(85.125 255.22)">
      <rect id="Rectangle_18" data-name="Rectangle 18" width="136.257" height="68.976" transform="translate(0 130.745) rotate(-73.648)" fill="#45562c"/>
      <path id="Path_43" data-name="Path 43" d="M162.586,245.665l-31.147-9.139a10.815,10.815,0,0,1-13.426,7.336L91.219,335.177a10.74,10.74,0,0,1,6.8,14.84l31.372,9.2a10.394,10.394,0,0,1,.309-1.479,10.827,10.827,0,0,1,13.429-7.337l26.794-91.313A10.818,10.818,0,0,1,162.586,245.665Z" transform="translate(-78.086 -222.774)" fill="#62783f"/>
      <path id="Path_44" data-name="Path 44" d="M137.521,264.834a29.924,29.924,0,1,1-37.141,20.29A29.925,29.925,0,0,1,137.521,264.834Z" transform="translate(-76.823 -218.465)" fill="#45562c"/>
      <g id="Group_27" data-name="Group 27" transform="translate(26.204 55.334)">
        <path id="Path_45" data-name="Path 45" d="M106.338,284.75l.269-.919q1.824-6.208,5.208-9.268a7.64,7.64,0,0,1,7.734-1.786,5.554,5.554,0,0,1,3.441,2.789,5.684,5.684,0,0,1,.455,4.477,6.548,6.548,0,0,1-2.6,3.672,4.978,4.978,0,0,1-4.429.575,5.608,5.608,0,0,1-3.311-2.373,4.367,4.367,0,0,1-.865-2.986c.145-.848.029-1.328-.356-1.44q-.685-.2-2,1.741a14.7,14.7,0,0,0-1.954,4.12l-.449,1.734,13.4,3.929q2.679-3.392,5.3-6.807a17.732,17.732,0,0,1,6.42-4.79,10.518,10.518,0,0,1,7.168-.328q7.057,2.069,8.867,7.871a26.113,26.113,0,0,1,.537,12.725l5.5,1.611L154.3,300.5l-5.379-1.579-.634,2.361a22.268,22.268,0,0,1-5.245,9.063q-3.769,4.016-8.254,2.705a6.107,6.107,0,0,1-3.7-3,5.95,5.95,0,0,1-.564-4.776,6.506,6.506,0,0,1,2.823-3.9,5.56,5.56,0,0,1,4.681-.49,4.677,4.677,0,0,1,3.085,2.4,5.771,5.771,0,0,1,.6,3.468q-.271.916.417,1.121c.5.145,1.376-.618,2.608-2.3a15.807,15.807,0,0,0,2.517-4.794l.575-2.178-13.851-4.066q-1.48,1.867-3.093,3.88t-3.5,3.974a12.755,12.755,0,0,1-5.508,3.109,12.277,12.277,0,0,1-7.294.066,11.514,11.514,0,0,1-8.222-8.1,19.71,19.71,0,0,1-.378-11.52l-3.492-1.023.35-1.2Zm.964,1.589a7.329,7.329,0,0,0,.9,4.353,5.644,5.644,0,0,0,3.425,2.51,6.244,6.244,0,0,0,4.474-.195,12.691,12.691,0,0,0,3.909-2.941Zm40.716,11.013a10.845,10.845,0,0,0-.518-5.25,5.048,5.048,0,0,0-3.529-3.085,6.347,6.347,0,0,0-4.4.107q-1.93.836-4.772,4.351Z" transform="translate(-102.497 -272.402)" fill="#62783f"/>
      </g>
      <path id="Path_46" data-name="Path 46" d="M138.934,246.362a7.362,7.362,0,1,1-9.134,4.992A7.36,7.36,0,0,1,138.934,246.362Z" transform="translate(-71.998 -221.257)" fill="#45562c"/>
      <path id="Path_47" data-name="Path 47" d="M117.081,320.849a7.36,7.36,0,1,1-9.137,4.989A7.355,7.355,0,0,1,117.081,320.849Z" transform="translate(-75.474 -209.411)" fill="#45562c"/>
    </g>
    <rect id="Rectangle_19" data-name="Rectangle 19" width="136.258" height="68.975" transform="translate(88.057 374.301) rotate(-53.039)" fill="#45562c"/>
    <path id="Path_49" data-name="Path 49" d="M196.9,268.638l-25.936-19.514a10.823,10.823,0,0,1-15.152,2.14L98.6,327.3a10.821,10.821,0,0,1,2.14,15.151,11.093,11.093,0,0,1-1,1.135l26.124,19.656a11.09,11.09,0,0,1,.812-1.275,10.822,10.822,0,0,1,15.151-2.141l57.218-76.04A10.825,10.825,0,0,1,196.9,268.638Z" transform="translate(8.212 34.45)" fill="#62783f"/>
    <path id="Path_50" data-name="Path 50" d="M163.634,278.521a29.923,29.923,0,1,1-41.9,5.92A29.92,29.92,0,0,1,163.634,278.521Z" transform="translate(10.935 38.169)" fill="#45562c"/>
    <g id="Group_29" data-name="Group 29" transform="translate(133.9 317.605)">
      <path id="Path_51" data-name="Path 51" d="M126.446,286.733l.58-.766q3.886-5.17,8.134-6.845a7.655,7.655,0,0,1,7.869,1.05A5.564,5.564,0,0,1,145.268,284a5.7,5.7,0,0,1-1.147,4.351,6.552,6.552,0,0,1-3.724,2.522,4.973,4.973,0,0,1-4.346-1.021,5.584,5.584,0,0,1-2.268-3.384,4.376,4.376,0,0,1,.245-3.1q.648-1.113.174-1.473-.574-.431-2.491.926a14.763,14.763,0,0,0-3.278,3.169L127.4,287.45l11.149,8.389q3.7-2.231,7.354-4.505a17.738,17.738,0,0,1,7.695-2.223,10.508,10.508,0,0,1,6.826,2.21q5.878,4.425,5.53,10.494a26.13,26.13,0,0,1-3.979,12.1l4.575,3.445-.751,1-4.481-3.371-1.421,1.991a22.388,22.388,0,0,1-8.1,6.633q-4.946,2.434-8.677-.371a6.123,6.123,0,0,1-2.411-4.116,5.962,5.962,0,0,1,1.154-4.669,6.511,6.511,0,0,1,4.011-2.654,5.564,5.564,0,0,1,4.555,1.188,4.683,4.683,0,0,1,2.046,3.332,5.773,5.773,0,0,1-.661,3.456c-.383.51-.383.906,0,1.194q.631.475,3.251-1.227a15.706,15.706,0,0,0,4.04-3.6l1.311-1.836-11.536-8.678q-2.045,1.222-4.263,2.538t-4.674,2.492a12.783,12.783,0,0,1-6.253.969,12.259,12.259,0,0,1-6.848-2.5A11.511,11.511,0,0,1,122,298.649a19.727,19.727,0,0,1,3.7-10.918l-2.907-2.189.752-1Zm.344,1.827a7.341,7.341,0,0,0-.69,4.387,5.626,5.626,0,0,0,2.327,3.556,6.216,6.216,0,0,0,4.253,1.394,12.626,12.626,0,0,0,4.691-1.38ZM161.026,313.2a10.813,10.813,0,0,0,1.362-5.1,5.035,5.035,0,0,0-2.216-4.131,6.364,6.364,0,0,0-4.156-1.449q-2.1.1-6,2.392Z" transform="translate(-121.971 -278.485)" fill="#62783f"/>
    </g>
    <path id="Path_52" data-name="Path 52" d="M170.172,262.622a7.36,7.36,0,1,1-10.305,1.456A7.359,7.359,0,0,1,170.172,262.622Z" transform="translate(17.721 36.361)" fill="#45562c"/>
    <path id="Path_53" data-name="Path 53" d="M123.5,324.645a7.362,7.362,0,1,1-10.309,1.456A7.365,7.365,0,0,1,123.5,324.645Z" transform="translate(10.298 46.225)" fill="#45562c"/>
    <path id="Rectangle_20" data-name="Rectangle 20" d="M8.385,0H123.2a8.385,8.385,0,0,1,8.385,8.385v79.59a8.387,8.387,0,0,1-8.387,8.387H8.385A8.385,8.385,0,0,1,0,87.976V8.385A8.385,8.385,0,0,1,8.385,0Z" transform="translate(46.963 318.877)" fill="#4e2a0e"/>
    <path id="Path_55" data-name="Path 55" d="M82.676,287.185c1.933,5.33,7.706,8.208,13.825,9.4a48.442,48.442,0,0,0,18.29.226c4.679-.93,21.683-5.363,32.962-3.783,18.633,2.615,19.9,14.444,25.273,7.351v-12.74c0-4.451-4.225-8.059-9.436-8.059H81.848A16.392,16.392,0,0,0,82.676,287.185Z" transform="translate(5.526 39.294)" fill="#fbc5b6" opacity="0.3"/>
    <path id="Rectangle_21" data-name="Rectangle 21" d="M7.381,0h54.21a7.381,7.381,0,0,1,7.381,7.381V28.627a7.385,7.385,0,0,1-7.385,7.385H7.381A7.381,7.381,0,0,1,0,28.631V7.381A7.381,7.381,0,0,1,7.381,0Z" transform="translate(112.759 346.769)" fill="#49270c"/>
    <path id="Path_56" data-name="Path 56" d="M168.777,329.221a7.356,7.356,0,0,1-7.489,7.21H115.911a7.354,7.354,0,0,1-7.489-7.21V313.306a7.353,7.353,0,0,1,7.489-7.207h45.378a7.354,7.354,0,0,1,7.489,7.207Z" transform="translate(9.774 43.511)" fill="#5a3012"/>
    <path id="Path_57" data-name="Path 57" d="M167.761,333.025H117.5c-3.565,0-6.455-2.59-6.455-5.785V314.467c0-3.194,2.889-5.784,6.455-5.784h50.257" transform="translate(10.192 43.922)" fill="none" stroke="#2c1500" stroke-miterlimit="10" stroke-width="0.875" stroke-dasharray="3.501"/>
    <path id="Path_58" data-name="Path 58" d="M130,320.662a8.116,8.116,0,1,1-8.116-8.116A8.117,8.117,0,0,1,130,320.662Z" transform="translate(10.625 44.536)" fill="#ffd400"/>
    <path id="Path_59" data-name="Path 59" d="M124.252,325.491a8.107,8.107,0,0,1-7.405-11.426,8.112,8.112,0,1,0,12.442,9.669A8.077,8.077,0,0,1,124.252,325.491Z" transform="translate(10.625 44.778)" fill="#fe9b11"/>
    <g id="Group_31" data-name="Group 31" transform="translate(133.23 369.551)">
      <path id="Path_60" data-name="Path 60" d="M208.851,375.359a4.678,4.678,0,0,1-4.9,4.4l-77.3.482a4.677,4.677,0,0,1-4.96-4.335l-.3-47.722a4.676,4.676,0,0,1,4.907-4.394l77.294-.482a4.674,4.674,0,0,1,4.96,4.333Z" transform="translate(-121.393 -323.304)" fill="#fa8815"/>
      <path id="Path_61" data-name="Path 61" d="M207.214,375.284c.016,2.351-2.141,4.268-4.814,4.286l-75.843.473a4.576,4.576,0,0,1-4.867-4.227l-.292-46.531A4.579,4.579,0,0,1,126.216,325l75.843-.474c2.673-.015,4.853,1.875,4.866,4.227Z" transform="translate(-121.392 -323.11)" fill="#ffd400"/>
      <rect id="Rectangle_22" data-name="Rectangle 22" width="85.527" height="11.583" transform="translate(0.056 13.776) rotate(-0.356)" fill="#313133"/>
      <rect id="Rectangle_23" data-name="Rectangle 23" width="53.396" height="4.62" transform="translate(27.24 28.568) rotate(-0.357)" fill="#c9aca1"/>
      <rect id="Rectangle_24" data-name="Rectangle 24" width="18.453" height="4.618" transform="translate(62.289 45.429) rotate(-0.351)" fill="#c9aca1"/>
      <rect id="Rectangle_25" data-name="Rectangle 25" width="29.643" height="4.618" transform="translate(23.419 45.673) rotate(-0.359)" fill="#c9aca1"/>
      <rect id="Rectangle_26" data-name="Rectangle 26" width="36.908" height="2.829" transform="translate(43.781 36.85) rotate(-0.358)" fill="#c9aca1"/>
    </g>
  </g>
</svg>
