<svg xmlns="http://www.w3.org/2000/svg" xmlns:xlink="http://www.w3.org/1999/xlink" width="19" height="20" viewBox="0 0 19 20">
  <defs>
    <clipPath id="clip-path">
      <rect width="19" height="20" fill="none"/>
    </clipPath>
  </defs>
  <g id="Instagram" clip-path="url(#clip-path)">
    <path id="Path_3" data-name="Path 3" d="M9.58,1.7a29.374,29.374,0,0,1,3.832.106,4.937,4.937,0,0,1,1.81.319,3.738,3.738,0,0,1,1.81,1.81,4.937,4.937,0,0,1,.319,1.81c0,.958.106,1.277.106,3.832a29.375,29.375,0,0,1-.106,3.832,4.937,4.937,0,0,1-.319,1.81,3.738,3.738,0,0,1-1.81,1.81,4.937,4.937,0,0,1-1.81.319c-.958,0-1.277.106-3.832.106a29.375,29.375,0,0,1-3.832-.106,4.937,4.937,0,0,1-1.81-.319,3.738,3.738,0,0,1-1.81-1.81,4.937,4.937,0,0,1-.319-1.81c0-.958-.106-1.277-.106-3.832A29.374,29.374,0,0,1,1.81,5.748a4.937,4.937,0,0,1,.319-1.81,3.823,3.823,0,0,1,.745-1.064,1.8,1.8,0,0,1,1.064-.745,4.937,4.937,0,0,1,1.81-.319A29.374,29.374,0,0,1,9.58,1.7m0-1.7A31.451,31.451,0,0,0,5.642.106,6.571,6.571,0,0,0,3.3.532,4.167,4.167,0,0,0,1.6,1.6,4.167,4.167,0,0,0,.532,3.3,4.85,4.85,0,0,0,.106,5.642,31.451,31.451,0,0,0,0,9.58a31.451,31.451,0,0,0,.106,3.938A6.571,6.571,0,0,0,.532,15.86a4.167,4.167,0,0,0,1.064,1.7,4.167,4.167,0,0,0,1.7,1.064,6.571,6.571,0,0,0,2.342.426,31.451,31.451,0,0,0,3.938.106,31.451,31.451,0,0,0,3.938-.106,6.572,6.572,0,0,0,2.342-.426,4.466,4.466,0,0,0,2.768-2.768,6.571,6.571,0,0,0,.426-2.342c0-1.064.106-1.384.106-3.938a31.451,31.451,0,0,0-.106-3.938A6.572,6.572,0,0,0,18.628,3.3a4.167,4.167,0,0,0-1.064-1.7A4.167,4.167,0,0,0,15.86.532,6.571,6.571,0,0,0,13.518.106,31.451,31.451,0,0,0,9.58,0m0,4.684a4.818,4.818,0,0,0-4.9,4.9,4.9,4.9,0,1,0,4.9-4.9m0,8.09A3.136,3.136,0,0,1,6.387,9.58,3.136,3.136,0,0,1,9.58,6.387,3.136,3.136,0,0,1,12.773,9.58,3.136,3.136,0,0,1,9.58,12.773M14.689,3.3A1.171,1.171,0,1,0,15.86,4.471,1.181,1.181,0,0,0,14.689,3.3" fill-rule="evenodd"/>
  </g>
</svg>
