<svg xmlns="http://www.w3.org/2000/svg" width="43" height="42" viewBox="0 0 43 42">
  <g id="Group_53" data-name="Group 53" transform="translate(-524 -414)">
    <rect id="Rectangle_29" data-name="Rectangle 29" width="43" height="42" transform="translate(524 414)" fill="#d80646"/>
    <path id="Path_62" data-name="Path 62" d="M112.829,229.64h.839c.172.022.345.039.516.068a6.281,6.281,0,0,1,4.205,2.484,6.365,6.365,0,0,1,.826,6.453c-.16.4-.4.779-.617,1.2a.761.761,0,0,1,.1.079c.94.938,1.875,1.879,2.819,2.813a1.763,1.763,0,0,1,.564.858v.389a1.529,1.529,0,0,1-.324.612,1.421,1.421,0,0,1-.665.376h-.389a1.719,1.719,0,0,1-.833-.548c-.9-.9-1.8-1.8-2.7-2.7-.084-.084-.157-.179-.224-.256-.047.017-.057.02-.065.025l-.051.031a6.5,6.5,0,0,1-9.964-4.187c-.055-.257-.079-.52-.118-.781v-.868a.42.42,0,0,0,.024-.084,6.21,6.21,0,0,1,.73-2.506,6.357,6.357,0,0,1,4.529-3.342C112.3,229.7,112.564,229.678,112.829,229.64Zm4.534,6.5a4.166,4.166,0,0,0-4.1-4.145,4.137,4.137,0,1,0-.032,8.273A4.159,4.159,0,0,0,117.364,236.136Z" transform="translate(431.25 198.026)" fill="#fff" fill-rule="evenodd"/>
  </g>
</svg>
