<svg xmlns="http://www.w3.org/2000/svg" xmlns:xlink="http://www.w3.org/1999/xlink" width="19.16" height="15.541" viewBox="0 0 19.16 15.541">
  <defs>
    <clipPath id="clip-path">
      <rect width="19.16" height="15.541" fill="none"/>
    </clipPath>
  </defs>
  <g id="Twitter" clip-path="url(#clip-path)">
    <path id="Path_2" data-name="Path 2" d="M44.067,17.541A11.077,11.077,0,0,0,55.244,6.364V5.832A8.653,8.653,0,0,0,57.16,3.81a8.836,8.836,0,0,1-2.235.639,4.141,4.141,0,0,0,1.7-2.129,9.763,9.763,0,0,1-2.448.958A3.8,3.8,0,0,0,51.306,2a4,4,0,0,0-3.938,3.938,2.075,2.075,0,0,0,.106.852,11.005,11.005,0,0,1-8.09-4.151,4.076,4.076,0,0,0-.532,2.022,4.229,4.229,0,0,0,1.7,3.3,3.588,3.588,0,0,1-1.81-.532h0a3.89,3.89,0,0,0,3.193,3.832,3.282,3.282,0,0,1-1.064.106,1.811,1.811,0,0,1-.745-.106,4.033,4.033,0,0,0,3.726,2.768,8.037,8.037,0,0,1-4.9,1.7A2.947,2.947,0,0,1,38,15.625a10.047,10.047,0,0,0,6.067,1.916" transform="translate(-38 -2)" fill-rule="evenodd"/>
  </g>
</svg>
