<svg xmlns="http://www.w3.org/2000/svg" xmlns:xlink="http://www.w3.org/1999/xlink" width="19" height="19" viewBox="0 0 19 19">
  <defs>
    <clipPath id="clip-path">
      <rect width="19" height="19" fill="none"/>
    </clipPath>
  </defs>
  <g id="Web" clip-path="url(#clip-path)">
    <path id="Path_4" data-name="Path 4" d="M2.874,2.874A8.7,8.7,0,0,1,9.58,0a8.7,8.7,0,0,1,6.706,2.874A8.7,8.7,0,0,1,19.16,9.58a8.7,8.7,0,0,1-2.874,6.706A8.7,8.7,0,0,1,9.58,19.16a8.7,8.7,0,0,1-6.706-2.874A9.561,9.561,0,0,1,0,9.58,8.7,8.7,0,0,1,2.874,2.874Zm7.983,14.37a3.923,3.923,0,0,0,2.4-1.437,6.974,6.974,0,0,0,1.118-3.353,2.644,2.644,0,0,0-.8-1.916A2.811,2.811,0,0,0,11.5,9.58H9.9a4.662,4.662,0,0,1-1.437-.319,1.449,1.449,0,0,1-.479-1.118A.83.83,0,0,1,8.3,7.5a1.21,1.21,0,0,1,.639-.319,1.09,1.09,0,0,1,.8.479c.319.16.479.319.639.319a.96.96,0,0,0,.639-.16.96.96,0,0,0,.16-.639,2.541,2.541,0,0,0-.8-1.6,6.6,6.6,0,0,0,.8-3.034.343.343,0,0,0-.319-.319A4.936,4.936,0,0,0,9.58,1.916,7.987,7.987,0,0,0,5.429,3.193,4.02,4.02,0,0,0,3.992,6.387,4.088,4.088,0,0,0,5.269,9.42,4.362,4.362,0,0,0,8.3,10.7h0v.639a2.05,2.05,0,0,0,.639,1.6,2.325,2.325,0,0,0,1.437.958v2.874c0,.16,0,.16.16.319S10.7,17.244,10.857,17.244Z"/>
  </g>
</svg>
